<svg width="283" height="175" viewBox="0 0 283 175" fill="none" xmlns="http://www.w3.org/2000/svg">
<rect x="4.09497" y="4.16626" width="275" height="167.315" stroke="#372F8F" stroke-width="3"/>
<rect x="1" y="1" width="7" height="6.9673" fill="#F5F5F5" stroke="#372F8F" stroke-width="2"/>
<rect x="1" y="167.033" width="7" height="6.9673" fill="#F5F5F5" stroke="#372F8F" stroke-width="2"/>
<rect x="275" y="166.952" width="7" height="6.9673" fill="#F5F5F5" stroke="#372F8F" stroke-width="2"/>
<rect x="275" y="1" width="7" height="6.9673" fill="#F5F5F5" stroke="#372F8F" stroke-width="2"/>
<path d="M31.6076 152.766L30.6626 154.878H32.9768H63.4879H64.4872L64.8722 153.956L75.9526 127.408H133.593L144.63 153.954L145.014 154.878H146.015H177.261H179.579L178.63 152.764L121.1 24.5704L120.702 23.6846H119.731H90.323H89.3507L88.9537 24.5721L31.6076 152.766ZM104.829 58.2219L122.981 101.883H86.6062L104.829 58.2219Z" fill="#372F8F" fill-opacity="0.1" stroke="#372F8F" stroke-width="3"/>
<path d="M79.6641 127.538C79.6641 129.462 78.0988 131.024 76.1641 131.024C74.2293 131.024 72.6641 129.462 72.6641 127.538C72.6641 125.615 74.2293 124.053 76.1641 124.053C78.0988 124.053 79.6641 125.615 79.6641 127.538Z" fill="#F5F5F5" stroke="#372F8F"/>
<path d="M137.562 127.538C137.562 129.462 135.996 131.024 134.062 131.024C132.127 131.024 130.562 129.462 130.562 127.538C130.562 125.615 132.127 124.053 134.062 124.053C135.996 124.053 137.562 125.615 137.562 127.538Z" fill="#F5F5F5" stroke="#372F8F"/>
<path d="M149.049 154.441C149.049 156.364 147.484 157.926 145.549 157.926C143.615 157.926 142.049 156.364 142.049 154.441C142.049 152.517 143.615 150.955 145.549 150.955C147.484 150.955 149.049 152.517 149.049 154.441Z" fill="#F5F5F5" stroke="#372F8F"/>
<path d="M182.674 154.441C182.674 156.364 181.109 157.926 179.174 157.926C177.239 157.926 175.674 156.364 175.674 154.441C175.674 152.517 177.239 150.955 179.174 150.955C181.109 150.955 182.674 152.517 182.674 154.441Z" fill="#F5F5F5" stroke="#372F8F"/>
<path d="M124.895 22.92C124.895 24.8433 123.33 26.4055 121.395 26.4055C119.46 26.4055 117.895 24.8433 117.895 22.92C117.895 20.9968 119.46 19.4346 121.395 19.4346C123.33 19.4346 124.895 20.9968 124.895 22.92Z" fill="#F5F5F5" stroke="#372F8F"/>
<path d="M92.895 22.92C92.895 24.8433 91.3297 26.4055 89.395 26.4055C87.4603 26.4055 85.895 24.8433 85.895 22.92C85.895 20.9968 87.4603 19.4346 89.395 19.4346C91.3297 19.4346 92.895 20.9968 92.895 22.92Z" fill="#F5F5F5" stroke="#372F8F"/>
<path d="M34.1785 154.441C34.1785 156.364 32.6132 157.926 30.6785 157.926C28.7438 157.926 27.1785 156.364 27.1785 154.441C27.1785 152.517 28.7438 150.955 30.6785 150.955C32.6132 150.955 34.1785 152.517 34.1785 154.441Z" fill="#F5F5F5" stroke="#372F8F"/>
<path d="M67.717 154.441C67.717 156.364 66.1518 157.926 64.217 157.926C62.2823 157.926 60.717 156.364 60.717 154.441C60.717 152.517 62.2823 150.955 64.217 150.955C66.1518 150.955 67.717 152.517 67.717 154.441Z" fill="#F5F5F5" stroke="#372F8F"/>
<path d="M89.7732 101.633C89.7732 103.556 88.2079 105.118 86.2732 105.118C84.3385 105.118 82.7732 103.556 82.7732 101.633C82.7732 99.7097 84.3385 98.1475 86.2732 98.1475C88.2079 98.1475 89.7732 99.7097 89.7732 101.633Z" fill="#F5F5F5" stroke="#372F8F"/>
<path d="M126.993 101.633C126.993 103.556 125.428 105.118 123.493 105.118C121.558 105.118 119.993 103.556 119.993 101.633C119.993 99.7097 121.558 98.1475 123.493 98.1475C125.428 98.1475 126.993 99.7097 126.993 101.633Z" fill="#F5F5F5" stroke="#372F8F"/>
<path d="M108.395 57.7928C108.395 59.7161 106.83 61.2783 104.895 61.2783C102.96 61.2783 101.395 59.7161 101.395 57.7928C101.395 55.8696 102.96 54.3074 104.895 54.3074C106.83 54.3074 108.395 55.8696 108.395 57.7928Z" fill="#F5F5F5" stroke="#372F8F"/>
<path d="M189.11 153.378V154.878H190.61H220.386H221.886V153.378V25.1846V23.6846H220.386H190.61H189.11V25.1846V153.378Z" fill="#372F8F" fill-opacity="0.1" stroke="#372F8F" stroke-width="3"/>
<path d="M192.895 23.9237C192.895 25.847 191.33 27.4092 189.395 27.4092C187.46 27.4092 185.895 25.847 185.895 23.9237C185.895 22.0004 187.46 20.4382 189.395 20.4382C191.33 20.4382 192.895 22.0004 192.895 23.9237Z" fill="#F5F5F5" stroke="#372F8F"/>
<path d="M224.895 23.9237C224.895 25.847 223.33 27.4092 221.395 27.4092C219.46 27.4092 217.895 25.847 217.895 23.9237C217.895 22.0004 219.46 20.4382 221.395 20.4382C223.33 20.4382 224.895 22.0004 224.895 23.9237Z" fill="#F5F5F5" stroke="#372F8F"/>
<path d="M224.895 154.441C224.895 156.364 223.33 157.926 221.395 157.926C219.46 157.926 217.895 156.364 217.895 154.441C217.895 152.517 219.46 150.955 221.395 150.955C223.33 150.955 224.895 152.517 224.895 154.441Z" fill="#F5F5F5" stroke="#372F8F"/>
<path d="M192.895 154.441C192.895 156.364 191.33 157.926 189.395 157.926C187.46 157.926 185.895 156.364 185.895 154.441C185.895 152.517 187.46 150.955 189.395 150.955C191.33 150.955 192.895 152.517 192.895 154.441Z" fill="#F5F5F5" stroke="#372F8F"/>
</svg>
