<svg width="663" height="292" viewBox="0 0 663 292" fill="none" xmlns="http://www.w3.org/2000/svg">
<mask id="mask0_181_2947" style="mask-type:alpha" maskUnits="userSpaceOnUse" x="0" y="0" width="916" height="311">
<path d="M1 135.5C26.6667 104.5 94.7 42.5 161.5 42.5C245 42.5 264.5 79 334 79C403.5 79 423 1 496 1C569 1 613 42.5 654.5 42.5" stroke="#161616"/>
<path d="M262 310.5C287.667 279.5 355.7 217.5 422.5 217.5C506 217.5 525.5 254 595 254C664.5 254 684 176 757 176C830 176 874 217.5 915.5 217.5" stroke="#DBDBDB"/>
<path d="M13.4285 143.833C39.0951 112.833 107.128 50.8335 173.928 50.8335C257.428 50.8335 276.928 87.3335 346.428 87.3335C415.928 87.3335 435.428 9.3335 508.428 9.3335C581.428 9.3335 625.428 50.8335 666.928 50.8335" stroke="#201F1F"/>
<path d="M25.8572 152.167C51.5238 121.167 119.557 59.1665 186.357 59.1665C269.857 59.1665 289.357 95.6665 358.857 95.6665C428.357 95.6665 447.857 17.6665 520.857 17.6665C593.857 17.6665 637.857 59.1665 679.357 59.1665" stroke="#292828"/>
<path d="M38.2856 160.5C63.9523 129.5 131.986 67.5 198.786 67.5C282.286 67.5 301.786 104 371.286 104C440.786 104 460.286 26 533.286 26C606.286 26 650.286 67.5 691.786 67.5" stroke="#323232"/>
<path d="M50.7144 168.833C76.381 137.833 144.414 75.8335 211.214 75.8335C294.714 75.8335 314.214 112.333 383.714 112.333C453.214 112.333 472.714 34.3335 545.714 34.3335C618.714 34.3335 662.714 75.8335 704.214 75.8335" stroke="#3C3B3B"/>
<path d="M63.1428 177.167C88.8095 146.167 156.843 84.1665 223.643 84.1665C307.143 84.1665 326.643 120.667 396.143 120.667C465.643 120.667 485.143 42.6665 558.143 42.6665C631.143 42.6665 675.143 84.1665 716.643 84.1665" stroke="#454545"/>
<path d="M75.5715 185.5C101.238 154.5 169.272 92.5 236.072 92.5C319.572 92.5 339.072 129 408.572 129C478.072 129 497.572 51 570.572 51C643.572 51 687.572 92.5 729.072 92.5" stroke="#4E4E4E"/>
<path d="M88 193.833C113.667 162.833 181.7 100.833 248.5 100.833C332 100.833 351.5 137.333 421 137.333C490.5 137.333 510 59.3335 583 59.3335C656 59.3335 700 100.833 741.5 100.833" stroke="#585757"/>
<path d="M100.428 202.167C126.095 171.167 194.128 109.167 260.928 109.167C344.428 109.167 363.928 145.667 433.428 145.667C502.928 145.667 522.428 67.6665 595.428 67.6665C668.428 67.6665 712.428 109.167 753.928 109.167" stroke="#616161"/>
<path d="M112.857 210.5C138.524 179.5 206.557 117.5 273.357 117.5C356.857 117.5 376.357 154 445.857 154C515.357 154 534.857 76 607.857 76C680.857 76 724.857 117.5 766.357 117.5" stroke="#6B6A6A"/>
<path d="M125.286 218.833C150.952 187.833 218.986 125.833 285.786 125.833C369.286 125.833 388.786 162.333 458.286 162.333C527.786 162.333 547.286 84.3335 620.286 84.3335C693.286 84.3335 737.286 125.833 778.786 125.833" stroke="#747474"/>
<path d="M137.714 227.167C163.381 196.167 231.414 134.167 298.214 134.167C381.714 134.167 401.214 170.667 470.714 170.667C540.214 170.667 559.714 92.6665 632.714 92.6665C705.714 92.6665 749.714 134.167 791.214 134.167" stroke="#7D7D7D"/>
<path d="M150.143 235.5C175.809 204.5 243.843 142.5 310.643 142.5C394.143 142.5 413.643 179 483.143 179C552.643 179 572.143 101 645.143 101C718.143 101 762.143 142.5 803.643 142.5" stroke="#878686"/>
<path d="M162.572 243.833C188.238 212.833 256.272 150.833 323.072 150.833C406.572 150.833 426.072 187.333 495.572 187.333C565.072 187.333 584.572 109.333 657.572 109.333C730.572 109.333 774.572 150.833 816.072 150.833" stroke="#909090"/>
<path d="M175 252.167C200.667 221.167 268.7 159.167 335.5 159.167C419 159.167 438.5 195.667 508 195.667C577.5 195.667 597 117.667 670 117.667C743 117.667 787 159.167 828.5 159.167" stroke="#999999"/>
<path d="M187.428 260.5C213.095 229.5 281.128 167.5 347.928 167.5C431.428 167.5 450.928 204 520.428 204C589.928 204 609.428 126 682.428 126C755.428 126 799.428 167.5 840.928 167.5" stroke="#A3A3A3"/>
<path d="M199.857 268.833C225.524 237.833 293.557 175.833 360.357 175.833C443.857 175.833 463.357 212.333 532.857 212.333C602.357 212.333 621.857 134.333 694.857 134.333C767.857 134.333 811.857 175.833 853.357 175.833" stroke="#ACACAC"/>
<path d="M212.286 277.167C237.952 246.167 305.986 184.167 372.786 184.167C456.286 184.167 475.786 220.667 545.286 220.667C614.786 220.667 634.286 142.667 707.286 142.667C780.286 142.667 824.286 184.167 865.786 184.167" stroke="#B5B5B5"/>
<path d="M224.714 285.5C250.381 254.5 318.414 192.5 385.214 192.5C468.714 192.5 488.214 229 557.714 229C627.214 229 646.714 151 719.714 151C792.714 151 836.714 192.5 878.214 192.5" stroke="#BFBFBF"/>
<path d="M237.143 293.833C262.809 262.833 330.843 200.833 397.643 200.833C481.143 200.833 500.643 237.333 570.143 237.333C639.643 237.333 659.143 159.333 732.143 159.333C805.143 159.333 849.143 200.833 890.643 200.833" stroke="#C8C8C8"/>
<path d="M249.572 302.167C275.238 271.167 343.272 209.167 410.072 209.167C493.572 209.167 513.072 245.667 582.572 245.667C652.072 245.667 671.572 167.667 744.572 167.667C817.572 167.667 861.572 209.167 903.072 209.167" stroke="#D2D1D1"/>
</mask>
<g mask="url(#mask0_181_2947)">
<rect x="-6" y="-2" width="929" height="316" fill="url(#paint0_linear_181_2947)"/>
</g>
<defs>
<linearGradient id="paint0_linear_181_2947" x1="828.5" y1="69" x2="108.5" y2="227" gradientUnits="userSpaceOnUse">
<stop stop-color="#F5F5F5" stop-opacity="0.59"/>
<stop offset="1" stop-color="#372F8F"/>
</linearGradient>
</defs>
</svg>
