<svg width="546" height="235" viewBox="0 0 546 235" fill="none" xmlns="http://www.w3.org/2000/svg">
<path d="M253.372 177.574L253.316 156.976L243.331 173.744H238.451L228.472 157.421V177.574H218.376V138.711H227.415L241.059 161.142L254.369 138.711H263.414L263.524 177.574H253.372Z" fill="white"/>
<path d="M298.569 170.022H282.154L279.103 177.574H267.9L285.038 138.711H295.854L313.046 177.574H301.618L298.569 170.022ZM295.352 161.918L290.361 149.483L285.37 161.918H295.352Z" fill="white"/>
<path d="M344.38 140.459C346.846 141.515 348.947 143.272 350.424 145.512C351.901 147.753 352.688 150.378 352.688 153.062C352.688 155.746 351.901 158.371 350.424 160.612C348.947 162.852 346.846 164.609 344.38 165.664C341.488 166.89 338.369 167.486 335.23 167.413H328.462V177.573H317.482V138.711H335.23C338.369 138.638 341.488 139.234 344.38 140.459ZM339.666 157.282C340.249 156.758 340.706 156.109 341.004 155.383C341.302 154.657 341.432 153.873 341.385 153.09C341.43 152.303 341.299 151.516 341.002 150.786C340.704 150.056 340.248 149.401 339.666 148.87C338.518 147.87 336.817 147.371 334.564 147.371H328.464V158.753H334.564C336.818 158.754 338.519 158.263 339.666 157.282Z" fill="white"/>
<path d="M410.044 138.711V177.574H357.412V138.711H368.228V168.857H378.378V138.711H389.192V168.857H399.23V138.711H410.044Z" fill="white"/>
<path d="M444.153 140.459C446.619 141.514 448.721 143.271 450.198 145.512C451.675 147.752 452.463 150.377 452.463 153.062C452.463 155.746 451.675 158.372 450.198 160.612C448.721 162.853 446.619 164.609 444.153 165.665C441.261 166.89 438.142 167.486 435.002 167.413H428.236V177.573H417.255V138.711H435.002C438.142 138.638 441.261 139.234 444.153 140.459ZM439.439 157.282C440.022 156.758 440.48 156.109 440.778 155.383C441.075 154.657 441.206 153.874 441.159 153.09C441.204 152.303 441.073 151.516 440.775 150.786C440.478 150.055 440.021 149.401 439.439 148.87C438.293 147.87 436.592 147.371 434.336 147.371H428.236V158.753H434.336C436.594 158.754 438.294 158.263 439.439 157.282Z" fill="white"/>
<path d="M493.233 138.711L477.151 168.75C475.707 171.671 473.563 174.188 470.911 176.078C468.54 177.716 465.724 178.589 462.842 178.577C460.479 178.532 458.146 178.042 455.964 177.132L458.572 169.028C459.828 169.429 461.135 169.654 462.453 169.695C463.453 169.714 464.439 169.464 465.31 168.973C466.239 168.397 467.025 167.619 467.611 166.697L452.526 138.716H464.117L473.156 157.481L482.53 138.716L493.233 138.711Z" fill="white"/>
<path d="M531.226 147.428H519.355V177.574H508.542V147.428H496.617V138.711H531.226V147.428Z" fill="white"/>
<path d="M254.813 189.812V228.674H243.942V198.528H229.19V228.674H218.376V189.812H254.813Z" fill="white"/>
<path d="M270.036 226.842C266.828 225.158 264.141 222.629 262.267 219.527C260.392 216.425 259.401 212.868 259.401 209.243C259.401 205.617 260.392 202.061 262.267 198.958C264.141 195.856 266.828 193.327 270.036 191.644C273.472 189.928 277.26 189.035 281.1 189.035C284.94 189.035 288.728 189.928 292.164 191.644C295.372 193.327 298.058 195.857 299.932 198.959C301.806 202.061 302.797 205.617 302.797 209.243C302.797 212.868 301.806 216.424 299.932 219.526C298.058 222.628 295.372 225.158 292.164 226.842C288.728 228.557 284.94 229.45 281.1 229.45C277.26 229.45 273.472 228.557 270.036 226.842ZM286.425 218.958C288.019 218.027 289.324 216.673 290.196 215.044C291.107 213.246 291.581 211.259 291.581 209.243C291.581 207.226 291.107 205.239 290.196 203.441C289.324 201.812 288.019 200.458 286.425 199.527C284.798 198.617 282.965 198.139 281.101 198.139C279.237 198.139 277.404 198.617 275.777 199.527C274.182 200.457 272.876 201.812 272.004 203.441C271.093 205.239 270.618 207.226 270.618 209.243C270.618 211.259 271.093 213.246 272.004 215.044C272.876 216.673 274.182 218.028 275.777 218.958C277.404 219.868 279.237 220.346 281.101 220.346C282.965 220.346 284.798 219.868 286.425 218.958Z" fill="white"/>
<path d="M316.51 226.871C313.354 225.225 310.715 222.736 308.885 219.681C307.069 216.503 306.113 212.906 306.113 209.244C306.113 205.583 307.069 201.985 308.885 198.808C310.715 195.752 313.354 193.264 316.51 191.617C319.891 189.862 323.655 188.975 327.464 189.037C330.759 188.986 334.028 189.629 337.059 190.923C339.835 192.128 342.272 193.996 344.158 196.365L337.171 202.694C334.655 199.659 331.604 198.141 328.018 198.141C326.053 198.106 324.112 198.584 322.388 199.529C320.762 200.436 319.433 201.795 318.562 203.443C317.669 205.246 317.204 207.232 317.204 209.244C317.204 211.257 317.669 213.243 318.562 215.046C319.433 216.694 320.762 218.053 322.388 218.96C324.112 219.905 326.053 220.383 328.018 220.348C331.604 220.348 334.655 218.83 337.171 215.795L344.158 222.125C342.272 224.493 339.835 226.362 337.059 227.566C334.028 228.86 330.759 229.503 327.464 229.453C323.655 229.514 319.891 228.627 316.51 226.871Z" fill="white"/>
<path d="M382.258 198.528H370.39V228.674H359.576V198.528H347.651V189.812H382.258V198.528Z" fill="white"/>
<path d="M413.093 191.562C415.559 192.617 417.661 194.373 419.139 196.614C420.616 198.854 421.403 201.48 421.403 204.164C421.403 206.849 420.616 209.474 419.139 211.714C417.661 213.955 415.559 215.712 413.093 216.767C410.201 217.992 407.082 218.588 403.942 218.515H397.177V228.675H386.195V189.813H403.942C407.082 189.74 410.201 190.336 413.093 191.562ZM408.379 208.383C408.962 207.859 409.42 207.21 409.718 206.484C410.015 205.758 410.145 204.974 410.098 204.191C410.143 203.404 410.012 202.617 409.715 201.888C409.418 201.158 408.961 200.504 408.379 199.973C407.233 198.973 405.532 198.474 403.276 198.474H397.177V209.854H403.276C405.532 209.853 407.233 209.362 408.379 208.381V208.383Z" fill="white"/>
<path d="M434.695 226.842C431.487 225.159 428.801 222.629 426.926 219.527C425.051 216.425 424.061 212.868 424.061 209.243C424.061 205.617 425.051 202.061 426.926 198.959C428.801 195.856 431.487 193.327 434.695 191.644C438.131 189.928 441.919 189.035 445.759 189.035C449.599 189.035 453.387 189.928 456.823 191.644C460.031 193.327 462.717 195.857 464.591 198.959C466.466 202.061 467.456 205.617 467.456 209.243C467.456 212.868 466.466 216.424 464.591 219.526C462.717 222.628 460.031 225.158 456.823 226.842C453.387 228.557 449.599 229.451 445.759 229.451C441.919 229.451 438.131 228.557 434.695 226.842ZM451.082 218.959C452.677 218.028 453.983 216.673 454.855 215.044C455.766 213.246 456.241 211.259 456.241 209.243C456.241 207.227 455.766 205.239 454.855 203.441C453.982 201.812 452.677 200.458 451.082 199.527C449.455 198.617 447.622 198.139 445.758 198.139C443.894 198.139 442.061 198.617 440.434 199.527C438.839 200.457 437.534 201.812 436.663 203.441C435.752 205.239 435.277 207.227 435.277 209.243C435.277 211.259 435.752 213.246 436.663 215.044C437.534 216.673 438.839 218.028 440.434 218.959C442.061 219.868 443.894 220.346 445.758 220.346C447.622 220.346 449.455 219.868 451.082 218.959Z" fill="white"/>
<path d="M503.271 220.178V228.671H472.102V189.808H502.549V198.3H482.971V204.851H500.218V213.067H482.971V220.173L503.271 220.178Z" fill="white"/>
<path d="M545.363 189.812V228.674H534.383V213.515H519.409V228.674H508.428V189.812H519.409V204.41H534.383V189.812H545.363Z" fill="white"/>
<path d="M49.3147 122.989H4.35059V228.499H49.3147V122.989Z" fill="#84C810"/>
<path fill-rule="evenodd" clip-rule="evenodd" d="M49.3154 135.347C46.536 131.536 44.2594 127.383 42.542 122.989H4.35059V156.347C5.98625 159.21 7.81672 161.957 9.82904 164.569C17.1142 173.918 19.24 175.964 27.4051 184.83C29.9088 187.547 38.749 196.402 49.3154 206.894V135.347Z" fill="#5E990B"/>
<path d="M194.36 137.509H149.396V228.499H194.36V137.509Z" fill="#E85A2F"/>
<path fill-rule="evenodd" clip-rule="evenodd" d="M149.397 201.067L194.362 156.278V137.509H149.397V201.067Z" fill="#CE4316"/>
<path fill-rule="evenodd" clip-rule="evenodd" d="M96.2137 45.5495C96.2137 45.5495 44.4789 47.4326 44.4789 98.7867C44.4789 117.338 53.4012 128.452 63.3387 138.475C81.9048 157.207 96.6995 171.386 96.6995 171.386L162.937 106.045L194.362 137.504L96.6981 234.787C96.6981 234.787 40.5121 179.59 33.8446 172.352C26.431 164.305 24.5023 162.447 17.8888 153.964C7.41141 140.519 0 117.708 0 100.24C0.390517 66.048 13.9114 42.6825 30.4603 27.6414C58.7276 1.94642 86.7971 0.726671 96.2144 0.538578C96.1828 0.523138 96.2137 45.5495 96.2137 45.5495Z" fill="#FF9901"/>
<path fill-rule="evenodd" clip-rule="evenodd" d="M194.361 137.508L162.935 106.05L96.6977 171.391L96.5301 171.231L96.5245 171.238C96.5245 171.238 76.4406 151.988 51.2379 126.56C37.7507 112.955 25.6405 97.8682 25.6405 72.6855C25.6405 11.5316 79.6741 2.05541 92.9468 0.648926C81.3294 1.20197 55.9774 4.45148 30.4613 27.6458C13.9152 42.6869 0.391493 66.0525 0.000976562 100.245C0.000976562 117.713 7.41238 140.523 17.8897 153.968C24.5033 162.454 26.432 164.313 33.8455 172.356C40.5131 179.594 96.6991 234.791 96.6991 234.791L194.361 137.508Z" fill="#FCD350"/>
</svg>
