<svg width="880" height="495" viewBox="0 0 880 495" fill="none" xmlns="http://www.w3.org/2000/svg">
<mask id="mask0_192_2496" style="mask-type:alpha" maskUnits="userSpaceOnUse" x="18" y="21" width="1004" height="453">
<path d="M19.193 277.599C79.5026 232.277 233.549 136.4 367.258 115.462C534.394 89.2893 559.598 139.159 660.941 123.29C762.284 107.42 779.969 32.8953 851.068 21.7617" stroke="black"/>
<path d="M189.985 472.644C250.294 427.322 404.341 331.444 538.05 310.506C705.186 284.334 730.39 334.204 831.733 318.334C933.076 302.464 950.76 227.94 1021.86 216.806" stroke="black"/>
<path d="M27.3263 286.887C87.6359 241.565 241.682 145.687 375.391 124.749C542.527 98.5769 567.732 148.447 669.075 132.577C770.418 116.708 788.102 42.1829 859.201 31.0493" stroke="black"/>
<path d="M35.4589 296.175C95.7685 250.853 249.815 154.975 383.524 134.037C550.66 107.865 575.864 157.735 677.207 141.865C778.55 125.996 796.235 51.471 867.334 40.3373" stroke="black"/>
<path d="M43.592 305.463C103.902 260.141 257.948 164.263 391.657 143.325C558.793 117.153 583.997 167.022 685.34 151.153C786.683 135.283 804.368 60.7586 875.467 49.6249" stroke="black"/>
<path d="M51.7245 314.751C112.034 269.429 266.08 173.551 399.789 152.613C566.925 126.441 592.13 176.31 693.473 160.441C794.816 144.571 812.5 70.0466 883.599 58.913" stroke="black"/>
<path d="M59.8578 324.038C120.167 278.716 274.214 182.838 407.923 161.901C575.059 135.728 600.263 185.598 701.606 169.728C802.949 153.859 820.633 79.3342 891.733 68.2006" stroke="black"/>
<path d="M67.9904 333.326C128.3 288.005 282.346 192.127 416.055 171.189C583.191 145.016 608.396 194.886 709.739 179.017C811.082 163.147 828.766 88.6223 899.865 77.4887" stroke="black"/>
<path d="M76.1237 342.614C136.433 297.292 290.48 201.414 424.189 180.476C591.325 154.304 616.529 204.174 717.872 188.304C819.215 172.435 836.899 97.9099 907.999 86.7763" stroke="black"/>
<path d="M84.257 351.902C144.567 306.58 298.613 210.702 432.322 189.764C599.458 163.592 624.662 213.462 726.005 197.592C827.348 181.723 845.033 107.198 916.132 96.0644" stroke="black"/>
<path d="M92.3893 361.19C152.699 315.868 306.745 219.99 440.454 199.052C607.59 172.88 632.795 222.749 734.138 206.88C835.481 191.01 853.165 116.486 924.264 105.352" stroke="black"/>
<path d="M100.523 370.478C160.832 325.156 314.879 229.278 448.587 208.34C615.724 182.168 640.928 232.037 742.271 216.168C843.614 200.298 861.298 125.774 932.397 114.64" stroke="black"/>
<path d="M108.655 379.765C168.965 334.443 323.011 238.566 456.72 217.628C623.856 191.455 649.061 241.325 750.404 225.456C851.746 209.586 869.431 135.061 940.53 123.928" stroke="black"/>
<path d="M116.788 389.053C177.098 343.732 331.144 247.854 464.853 226.916C631.989 200.743 657.194 250.613 758.537 234.744C859.88 218.874 877.564 144.349 948.663 133.216" stroke="black"/>
<path d="M124.921 398.341C185.231 353.019 339.277 257.141 472.986 236.203C640.122 210.031 665.327 259.901 766.669 244.031C868.012 228.162 885.697 153.637 956.796 142.503" stroke="black"/>
<path d="M133.054 407.629C193.364 362.307 347.41 266.429 481.119 245.491C648.255 219.319 673.46 269.189 774.803 253.319C876.146 237.45 893.83 162.925 964.929 151.791" stroke="black"/>
<path d="M141.188 416.917C201.497 371.595 355.544 275.717 489.252 254.779C656.389 228.607 681.593 278.476 782.936 262.607C884.279 246.737 901.963 172.213 973.062 161.079" stroke="black"/>
<path d="M149.32 426.205C209.63 380.883 363.676 285.005 497.385 264.067C664.521 237.895 689.725 287.765 791.068 271.895C892.411 256.025 910.096 181.501 981.195 170.367" stroke="black"/>
<path d="M157.453 435.492C217.763 390.171 371.809 294.293 505.518 273.355C672.654 247.182 697.859 297.052 799.202 281.183C900.544 265.313 918.229 190.788 989.328 179.655" stroke="black"/>
<path d="M165.586 444.781C225.895 399.459 379.942 303.581 513.651 282.643C680.787 256.471 705.991 306.341 807.334 290.471C908.677 274.602 926.362 200.077 997.461 188.943" stroke="black"/>
<path d="M173.719 454.068C234.029 408.747 388.075 312.869 521.784 291.931C688.92 265.759 714.125 315.628 815.467 299.759C916.81 283.889 934.495 209.365 1005.59 198.231" stroke="black"/>
<path d="M181.852 463.356C242.161 418.034 396.208 322.156 529.917 301.218C697.053 275.046 722.257 324.916 823.6 309.046C924.943 293.177 942.627 218.652 1013.73 207.518" stroke="black"/>
</mask>
<g mask="url(#mask0_192_2496)">
<rect x="-11.6467" y="136.2" width="1031.15" height="375.94" transform="rotate(-8.89983 -11.6467 136.2)" fill="url(#paint0_linear_192_2496)"/>
</g>
<defs>
<linearGradient id="paint0_linear_192_2496" x1="59.7818" y1="384.32" x2="949.685" y2="276.909" gradientUnits="userSpaceOnUse">
<stop stop-color="#F5F5F5"/>
<stop offset="0.59" stop-color="#372F8F" stop-opacity="0.2"/>
<stop offset="1" stop-color="#F5F5F5"/>
</linearGradient>
</defs>
</svg>
