<svg width="272" height="263" viewBox="0 0 272 263" fill="none" xmlns="http://www.w3.org/2000/svg">
<mask id="mask0_190_1522" style="mask-type:alpha" maskUnits="userSpaceOnUse" x="0" y="57" width="286" height="148">
<path d="M1 61.8577C15.1785 58.7487 47.3321 54.7229 62.519 63.491C81.5025 74.4512 145.212 76.5329 171.292 69.5448" stroke="url(#paint0_linear_190_1522)"/>
<path d="M115.269 192.742C129.448 189.634 161.601 185.608 176.788 194.376C195.772 205.336 259.481 207.418 285.561 200.43" stroke="url(#paint1_linear_190_1522)"/>
<path d="M6.44153 68.0901C20.62 64.9812 52.7736 60.9553 67.9605 69.7235C86.944 80.6836 150.654 82.7653 176.734 75.7772" stroke="url(#paint2_linear_190_1522)"/>
<path d="M11.8827 74.323C26.0612 71.2141 58.2148 67.1883 73.4016 75.9564C92.3852 86.9165 156.095 88.9982 182.175 82.0101" stroke="url(#paint3_linear_190_1522)"/>
<path d="M17.3242 80.5554C31.5027 77.4465 63.6563 73.4207 78.8432 82.1888C97.8267 93.149 161.536 95.2306 187.616 88.2425" stroke="url(#paint4_linear_190_1522)"/>
<path d="M22.7654 86.7881C36.9439 83.6792 69.0975 79.6533 84.2843 88.4215C103.268 99.3816 166.978 101.463 193.058 94.4752" stroke="url(#paint5_linear_190_1522)"/>
<path d="M28.207 93.0208C42.3855 89.9118 74.5392 85.886 89.726 94.6541C108.71 105.614 172.419 107.696 198.499 100.708" stroke="url(#paint6_linear_190_1522)"/>
<path d="M33.6482 99.2534C47.8267 96.1445 79.9803 92.1187 95.1671 100.887C114.151 111.847 177.86 113.929 203.94 106.941" stroke="url(#paint7_linear_190_1522)"/>
<path d="M39.0897 105.486C53.2682 102.377 85.4218 98.3511 100.609 107.119C119.592 118.079 183.302 120.161 209.382 113.173" stroke="url(#paint8_linear_190_1522)"/>
<path d="M44.5312 111.718C58.7097 108.609 90.8634 104.584 106.05 113.352C125.034 124.312 188.743 126.393 214.823 119.405" stroke="url(#paint9_linear_190_1522)"/>
<path d="M49.9724 117.951C64.1509 114.842 96.3045 110.816 111.491 119.585C130.475 130.545 194.185 132.626 220.265 125.638" stroke="url(#paint10_linear_190_1522)"/>
<path d="M55.4139 124.184C69.5924 121.075 101.746 117.049 116.933 125.817C135.916 136.777 199.626 138.859 225.706 131.871" stroke="url(#paint11_linear_190_1522)"/>
<path d="M60.8551 130.417C75.0336 127.308 107.187 123.282 122.374 132.05C141.358 143.01 205.067 145.092 231.147 138.104" stroke="url(#paint12_linear_190_1522)"/>
<path d="M66.2966 136.649C80.4751 133.54 112.629 129.514 127.816 138.282C146.799 149.242 210.509 151.324 236.589 144.336" stroke="url(#paint13_linear_190_1522)"/>
<path d="M71.7378 142.882C85.9163 139.773 118.07 135.747 133.257 144.515C152.24 155.475 215.95 157.557 242.03 150.569" stroke="url(#paint14_linear_190_1522)"/>
<path d="M77.1794 149.114C91.3579 146.005 123.512 141.98 138.698 150.748C157.682 161.708 221.392 163.789 247.472 156.801" stroke="url(#paint15_linear_190_1522)"/>
<path d="M82.621 155.347C96.7994 152.238 128.953 148.212 144.14 156.98C163.123 167.94 226.833 170.022 252.913 163.034" stroke="url(#paint16_linear_190_1522)"/>
<path d="M88.0621 161.579C102.241 158.47 134.394 154.445 149.581 163.213C168.565 174.173 232.274 176.255 258.354 169.266" stroke="url(#paint17_linear_190_1522)"/>
<path d="M93.5037 167.812C107.682 164.703 139.836 160.677 155.023 169.445C174.006 180.406 237.716 182.487 263.796 175.499" stroke="url(#paint18_linear_190_1522)"/>
<path d="M98.9448 174.045C113.123 170.936 145.277 166.91 160.464 175.678C179.447 186.638 243.157 188.72 269.237 181.732" stroke="url(#paint19_linear_190_1522)"/>
<path d="M104.386 180.277C118.565 177.168 150.719 173.143 165.905 181.911C184.889 192.871 248.599 194.953 274.679 187.964" stroke="url(#paint20_linear_190_1522)"/>
<path d="M109.828 186.51C124.006 183.401 156.16 179.375 171.346 188.143C190.33 199.103 254.04 201.185 280.12 194.197" stroke="url(#paint21_linear_190_1522)"/>
</mask>
<g mask="url(#mask0_190_1522)">
<rect x="-4.86487" y="59.2881" width="254" height="223" transform="rotate(-15 -4.86487 59.2881)" fill="url(#paint22_linear_190_1522)"/>
</g>
<defs>
<linearGradient id="paint0_linear_190_1522" x1="79.4815" y1="40.8286" x2="92.8107" y2="90.5738" gradientUnits="userSpaceOnUse">
<stop stop-color="#F5F5F5"/>
<stop offset="1" stop-color="#372F8F"/>
</linearGradient>
<linearGradient id="paint1_linear_190_1522" x1="193.751" y1="171.713" x2="207.08" y2="221.459" gradientUnits="userSpaceOnUse">
<stop stop-color="#F5F5F5"/>
<stop offset="1" stop-color="#372F8F"/>
</linearGradient>
<linearGradient id="paint2_linear_190_1522" x1="84.923" y1="47.061" x2="98.2522" y2="96.8062" gradientUnits="userSpaceOnUse">
<stop stop-color="#F5F5F5"/>
<stop offset="1" stop-color="#372F8F"/>
</linearGradient>
<linearGradient id="paint3_linear_190_1522" x1="90.3642" y1="53.294" x2="103.693" y2="103.039" gradientUnits="userSpaceOnUse">
<stop stop-color="#F5F5F5"/>
<stop offset="1" stop-color="#372F8F"/>
</linearGradient>
<linearGradient id="paint4_linear_190_1522" x1="95.8057" y1="59.5264" x2="109.135" y2="109.272" gradientUnits="userSpaceOnUse">
<stop stop-color="#F5F5F5"/>
<stop offset="1" stop-color="#372F8F"/>
</linearGradient>
<linearGradient id="paint5_linear_190_1522" x1="101.247" y1="65.759" x2="114.576" y2="115.504" gradientUnits="userSpaceOnUse">
<stop stop-color="#F5F5F5"/>
<stop offset="1" stop-color="#372F8F"/>
</linearGradient>
<linearGradient id="paint6_linear_190_1522" x1="106.689" y1="71.9917" x2="120.018" y2="121.737" gradientUnits="userSpaceOnUse">
<stop stop-color="#F5F5F5"/>
<stop offset="1" stop-color="#372F8F"/>
</linearGradient>
<linearGradient id="paint7_linear_190_1522" x1="112.13" y1="78.2244" x2="125.459" y2="127.97" gradientUnits="userSpaceOnUse">
<stop stop-color="#F5F5F5"/>
<stop offset="1" stop-color="#372F8F"/>
</linearGradient>
<linearGradient id="paint8_linear_190_1522" x1="117.571" y1="84.4568" x2="130.9" y2="134.202" gradientUnits="userSpaceOnUse">
<stop stop-color="#F5F5F5"/>
<stop offset="1" stop-color="#372F8F"/>
</linearGradient>
<linearGradient id="paint9_linear_190_1522" x1="123.013" y1="90.6892" x2="136.342" y2="140.434" gradientUnits="userSpaceOnUse">
<stop stop-color="#F5F5F5"/>
<stop offset="1" stop-color="#372F8F"/>
</linearGradient>
<linearGradient id="paint10_linear_190_1522" x1="128.454" y1="96.9221" x2="141.783" y2="146.667" gradientUnits="userSpaceOnUse">
<stop stop-color="#F5F5F5"/>
<stop offset="1" stop-color="#372F8F"/>
</linearGradient>
<linearGradient id="paint11_linear_190_1522" x1="133.895" y1="103.155" x2="147.225" y2="152.9" gradientUnits="userSpaceOnUse">
<stop stop-color="#F5F5F5"/>
<stop offset="1" stop-color="#372F8F"/>
</linearGradient>
<linearGradient id="paint12_linear_190_1522" x1="139.337" y1="109.387" x2="152.666" y2="159.133" gradientUnits="userSpaceOnUse">
<stop stop-color="#F5F5F5"/>
<stop offset="1" stop-color="#372F8F"/>
</linearGradient>
<linearGradient id="paint13_linear_190_1522" x1="144.778" y1="115.62" x2="158.107" y2="165.365" gradientUnits="userSpaceOnUse">
<stop stop-color="#F5F5F5"/>
<stop offset="1" stop-color="#372F8F"/>
</linearGradient>
<linearGradient id="paint14_linear_190_1522" x1="150.219" y1="121.853" x2="163.548" y2="171.598" gradientUnits="userSpaceOnUse">
<stop stop-color="#F5F5F5"/>
<stop offset="1" stop-color="#372F8F"/>
</linearGradient>
<linearGradient id="paint15_linear_190_1522" x1="155.661" y1="128.085" x2="168.99" y2="177.83" gradientUnits="userSpaceOnUse">
<stop stop-color="#F5F5F5"/>
<stop offset="1" stop-color="#372F8F"/>
</linearGradient>
<linearGradient id="paint16_linear_190_1522" x1="161.102" y1="134.318" x2="174.432" y2="184.063" gradientUnits="userSpaceOnUse">
<stop stop-color="#F5F5F5"/>
<stop offset="1" stop-color="#372F8F"/>
</linearGradient>
<linearGradient id="paint17_linear_190_1522" x1="166.544" y1="140.55" x2="179.873" y2="190.295" gradientUnits="userSpaceOnUse">
<stop stop-color="#F5F5F5"/>
<stop offset="1" stop-color="#372F8F"/>
</linearGradient>
<linearGradient id="paint18_linear_190_1522" x1="171.985" y1="146.783" x2="185.314" y2="196.528" gradientUnits="userSpaceOnUse">
<stop stop-color="#F5F5F5"/>
<stop offset="1" stop-color="#372F8F"/>
</linearGradient>
<linearGradient id="paint19_linear_190_1522" x1="177.426" y1="153.016" x2="190.755" y2="202.761" gradientUnits="userSpaceOnUse">
<stop stop-color="#F5F5F5"/>
<stop offset="1" stop-color="#372F8F"/>
</linearGradient>
<linearGradient id="paint20_linear_190_1522" x1="182.868" y1="159.248" x2="196.197" y2="208.993" gradientUnits="userSpaceOnUse">
<stop stop-color="#F5F5F5"/>
<stop offset="1" stop-color="#372F8F"/>
</linearGradient>
<linearGradient id="paint21_linear_190_1522" x1="188.309" y1="165.481" x2="201.638" y2="215.226" gradientUnits="userSpaceOnUse">
<stop stop-color="#F5F5F5"/>
<stop offset="1" stop-color="#372F8F"/>
</linearGradient>
<linearGradient id="paint22_linear_190_1522" x1="53.1351" y1="141.788" x2="288.135" y2="267.288" gradientUnits="userSpaceOnUse">
<stop stop-color="#F5F5F5"/>
<stop offset="1" stop-color="#372F8F" stop-opacity="0.2"/>
</linearGradient>
</defs>
</svg>
