<svg width="723" height="403" viewBox="0 0 723 403" fill="none" xmlns="http://www.w3.org/2000/svg">
<mask id="mask0_190_2300" style="mask-type:alpha" maskUnits="userSpaceOnUse" x="-20" y="58" width="707" height="286">
<path d="M-19.1708 333.153C8.67372 341.072 83.6442 351.568 160.77 330.211C257.177 303.513 251.346 282.457 308.969 266.5C366.592 250.543 422.242 285.626 470.445 272.278" stroke="black"/>
<path d="M196.397 130.264C224.241 138.183 299.212 148.68 376.337 127.322C472.745 100.624 466.914 79.5685 524.537 63.6115C582.159 47.6545 637.809 82.7373 686.013 69.3887" stroke="black"/>
<path d="M-8.90542 323.492C18.9391 331.41 93.9096 341.907 171.035 320.549C267.443 293.852 261.612 272.796 319.235 256.839C376.857 240.882 432.507 275.965 480.711 262.616" stroke="black"/>
<path d="M1.35923 313.831C29.2038 321.749 104.174 332.246 181.3 310.888C277.707 284.191 271.877 263.135 329.499 247.178C387.122 231.221 442.772 266.303 490.975 252.955" stroke="black"/>
<path d="M11.6244 304.169C39.4689 312.087 114.439 322.584 191.565 301.226C287.972 274.529 282.142 253.473 339.764 237.516C397.387 221.559 453.037 256.642 501.241 243.293" stroke="black"/>
<path d="M21.89 294.508C49.7345 302.426 124.705 312.923 201.831 291.565C298.238 264.868 292.407 243.812 350.03 227.855C407.653 211.898 463.303 246.981 511.506 233.632" stroke="black"/>
<path d="M32.1546 284.847C59.9992 292.765 134.97 303.262 212.095 281.904C308.503 255.206 302.672 234.151 360.295 218.194C417.917 202.237 473.567 237.319 521.771 223.971" stroke="black"/>
<path d="M42.42 275.185C70.2645 283.104 145.235 293.6 222.361 272.243C318.768 245.545 312.937 224.489 370.56 208.532C428.183 192.575 483.833 227.658 532.036 214.31" stroke="black"/>
<path d="M52.6854 265.524C80.5299 273.442 155.5 283.939 232.626 262.581C329.033 235.884 323.203 214.828 380.825 198.871C438.448 182.914 494.098 217.997 542.302 204.648" stroke="black"/>
<path d="M62.9501 255.862C90.7946 263.78 165.765 274.277 242.891 252.919C339.298 226.222 333.467 205.166 391.09 189.209C448.713 173.252 504.363 208.335 552.566 194.986" stroke="black"/>
<path d="M73.2152 246.201C101.06 254.119 176.03 264.616 253.156 243.258C349.563 216.561 343.732 195.505 401.355 179.548C458.978 163.591 514.628 198.674 562.831 185.325" stroke="black"/>
<path d="M83.4806 236.54C111.325 244.458 186.296 254.955 263.421 233.597C359.829 206.9 353.998 185.844 411.621 169.887C469.243 153.93 524.893 189.012 573.097 175.664" stroke="black"/>
<path d="M93.7457 226.879C121.59 234.797 196.561 245.294 273.687 223.936C370.094 197.238 364.263 176.183 421.886 160.226C479.508 144.269 535.158 179.351 583.362 166.003" stroke="black"/>
<path d="M104.011 217.217C131.855 225.135 206.826 235.632 283.952 214.274C380.359 187.577 374.528 166.521 432.151 150.564C489.774 134.607 545.423 169.69 593.627 156.341" stroke="black"/>
<path d="M114.276 207.556C142.121 215.474 217.091 225.971 294.217 204.613C390.624 177.915 384.793 156.86 442.416 140.903C500.039 124.946 555.689 160.028 603.892 146.68" stroke="black"/>
<path d="M124.541 197.894C152.385 205.812 227.356 216.309 304.481 194.951C400.889 168.254 395.058 147.198 452.681 131.241C510.303 115.284 565.953 150.367 614.157 137.018" stroke="black"/>
<path d="M134.806 188.233C162.65 196.151 237.621 206.648 314.747 185.29C411.154 158.592 405.323 137.537 462.946 121.58C520.569 105.623 576.218 140.705 624.422 127.357" stroke="black"/>
<path d="M145.071 178.571C172.916 186.49 247.886 196.986 325.012 175.629C421.419 148.931 415.588 127.875 473.211 111.918C530.834 95.9614 586.484 131.044 634.687 117.696" stroke="black"/>
<path d="M155.336 168.91C183.18 176.828 258.151 187.325 335.277 165.967C431.684 139.27 425.853 118.214 483.476 102.257C541.099 86.3 596.748 121.383 644.952 108.034" stroke="black"/>
<path d="M165.601 159.249C193.446 167.167 268.416 177.664 345.542 156.306C441.95 129.609 436.119 108.553 493.741 92.5959C551.364 76.6389 607.014 111.722 655.218 98.373" stroke="black"/>
<path d="M175.867 149.587C203.711 157.505 278.682 168.002 355.808 146.644C452.215 119.947 446.384 98.8911 504.007 82.934C561.63 66.977 617.279 102.06 665.483 88.7112" stroke="black"/>
<path d="M186.131 139.926C213.976 147.844 288.946 158.341 366.072 136.983C462.48 110.286 456.649 89.2299 514.271 73.2729C571.894 57.3159 627.544 92.3987 675.748 79.05" stroke="black"/>
</mask>
<g mask="url(#mask0_190_2300)">
<rect width="809.286" height="269" transform="matrix(0.96373 -0.266878 -0.266878 -0.96373 -22.1917 440.866)" fill="url(#paint0_linear_190_2300)"/>
</g>
<defs>
<linearGradient id="paint0_linear_190_2300" x1="843.264" y1="121.733" x2="25.8111" y2="79.9011" gradientUnits="userSpaceOnUse">
<stop stop-color="#F5F5F5"/>
<stop offset="1" stop-color="#372F8F" stop-opacity="0.2"/>
</linearGradient>
</defs>
</svg>
