<svg width="804" height="512" viewBox="0 0 804 512" fill="none" xmlns="http://www.w3.org/2000/svg">
<mask id="mask0_192_2705" style="mask-type:alpha" maskUnits="userSpaceOnUse" x="-128" y="72" width="881" height="362">
<path d="M-127.142 78.24C-75.1414 72.8484 49.3375 67.5521 131.248 89.5C233.636 116.935 331.382 175.219 400.445 193.725C469.509 212.23 574.317 182.338 661.733 205.761" stroke="black"/>
<path d="M-36.4919 305.961C15.5087 300.57 139.988 295.273 221.898 317.221C324.286 344.656 422.032 402.94 491.096 421.446C560.159 439.951 664.967 410.059 752.383 433.482" stroke="black"/>
<path d="M-122.825 89.0837C-70.8248 83.6921 53.6542 78.3958 135.565 100.344C237.953 127.779 335.698 186.063 404.762 204.568C473.826 223.074 578.634 193.182 666.05 216.605" stroke="black"/>
<path d="M-118.509 99.928C-66.5084 94.5364 57.9706 89.2401 139.881 111.188C242.269 138.623 340.015 196.907 409.078 215.413C478.142 233.918 582.95 204.026 670.366 227.449" stroke="black"/>
<path d="M-114.192 110.772C-62.1912 105.38 62.2877 100.084 144.198 122.032C246.586 149.467 344.332 207.751 413.396 226.256C482.459 244.762 587.267 214.87 674.683 238.293" stroke="black"/>
<path d="M-109.875 121.615C-57.8746 116.224 66.6044 110.928 148.515 132.875C250.903 160.31 348.649 218.595 417.712 237.1C486.776 255.606 591.584 225.714 679 249.137" stroke="black"/>
<path d="M-105.559 132.459C-53.5582 127.068 70.9208 121.771 152.831 143.719C255.219 171.154 352.965 229.438 422.029 247.944C491.092 266.45 595.9 236.557 683.317 259.98" stroke="black"/>
<path d="M-101.242 143.303C-49.2415 137.911 75.2374 132.615 157.148 154.563C259.536 181.998 357.282 240.282 426.345 258.788C495.409 277.293 600.217 247.401 687.633 270.824" stroke="black"/>
<path d="M-96.9253 154.147C-44.9246 148.756 79.5543 143.459 161.465 165.407C263.853 192.842 361.598 251.126 430.662 269.632C499.726 288.138 604.534 258.245 691.95 281.668" stroke="black"/>
<path d="M-92.6086 164.991C-40.608 159.599 83.871 154.303 165.782 176.251C268.17 203.686 365.915 261.97 434.979 280.476C504.043 298.981 608.85 269.089 696.267 292.512" stroke="black"/>
<path d="M-88.292 175.835C-36.2913 170.443 88.1876 165.147 170.098 187.095C272.486 214.529 370.232 272.814 439.295 291.319C508.359 309.825 613.167 279.933 700.583 303.356" stroke="black"/>
<path d="M-83.9756 186.679C-31.9749 181.287 92.504 175.991 174.415 197.939C276.803 225.374 374.548 283.658 443.612 302.164C512.676 320.669 617.484 290.777 704.9 314.2" stroke="black"/>
<path d="M-79.6584 197.523C-27.6578 192.131 96.8212 186.835 178.732 208.783C281.12 236.217 378.865 294.502 447.929 313.007C516.993 331.513 621.801 301.621 709.217 325.044" stroke="black"/>
<path d="M-75.3418 208.366C-23.3411 202.975 101.138 197.679 183.048 219.626C285.436 247.061 383.182 305.346 452.246 323.851C521.309 342.357 626.117 312.464 713.534 335.888" stroke="black"/>
<path d="M-71.0254 219.21C-19.0247 213.819 105.454 208.522 187.365 230.47C289.753 257.905 387.498 316.189 456.562 334.695C525.626 353.2 630.434 323.308 717.85 346.731" stroke="black"/>
<path d="M-66.7087 230.054C-14.7081 224.663 109.771 219.367 191.681 241.314C294.07 268.749 391.815 327.034 460.879 345.539C529.942 364.045 634.75 334.152 722.167 357.576" stroke="black"/>
<path d="M-62.3918 240.898C-10.3912 235.507 114.088 230.21 195.998 252.158C298.386 279.593 396.132 337.877 465.196 356.383C534.259 374.888 639.067 344.996 726.484 368.419" stroke="black"/>
<path d="M-58.0752 251.742C-6.07452 246.35 118.404 241.054 200.315 263.002C302.703 290.437 400.449 348.721 469.512 367.227C538.576 385.732 643.384 355.84 730.8 379.263" stroke="black"/>
<path d="M-53.7585 262.586C-1.75787 257.195 122.721 251.898 204.632 273.846C307.02 301.281 404.765 359.565 473.829 378.071C542.893 396.576 647.701 366.684 735.117 390.107" stroke="black"/>
<path d="M-49.4421 273.429C2.55854 268.038 127.037 262.742 208.948 284.689C311.336 312.124 409.082 370.409 478.145 388.914C547.209 407.42 652.017 377.527 739.433 400.951" stroke="black"/>
<path d="M-45.125 284.274C6.87568 278.882 131.355 273.586 213.265 295.534C315.653 322.968 413.399 381.253 482.462 399.758C551.526 418.264 656.334 388.372 743.75 411.795" stroke="black"/>
<path d="M-40.8083 295.117C11.1923 289.726 135.671 284.43 217.582 306.377C319.97 333.812 417.715 392.097 486.779 410.602C555.843 429.108 660.651 399.215 748.067 422.639" stroke="black"/>
</mask>
<g mask="url(#mask0_192_2705)">
<rect x="-104.978" y="-6.40771" width="944" height="300" transform="rotate(15 -104.978 -6.40771)" fill="url(#paint0_linear_192_2705)"/>
</g>
<defs>
<linearGradient id="paint0_linear_192_2705" x1="-104.978" y1="143.592" x2="839.022" y2="143.592" gradientUnits="userSpaceOnUse">
<stop stop-color="#F5F5F5"/>
<stop offset="1" stop-color="#372F8F" stop-opacity="0.2"/>
</linearGradient>
</defs>
</svg>
