<svg width="785" height="508" viewBox="0 0 785 508" fill="none" xmlns="http://www.w3.org/2000/svg">
<mask id="mask0_190_2399" style="mask-type:alpha" maskUnits="userSpaceOnUse" x="-37" y="72" width="765" height="370">
<path d="M727.841 80.1859C676.806 74.7777 564.197 66.9833 522.043 79.0706C469.349 94.1797 444.327 161.479 365.573 184.061C286.819 206.642 267.106 196.693 202.05 186.63C133.946 176.095 109.183 170.799 61.0713 184.594" stroke="black"/>
<path d="M630.757 323.11C579.722 317.702 467.113 309.907 424.959 321.994C372.265 337.103 347.243 404.403 268.489 426.985C189.735 449.566 170.022 439.617 104.966 429.554C36.8618 419.019 12.0988 413.722 -36.0127 427.518" stroke="black"/>
<path d="M723.218 91.7535C672.183 86.3454 559.574 78.5509 517.419 90.6382C464.726 105.747 439.704 173.047 360.95 195.629C282.196 218.21 262.483 208.26 197.427 198.197C129.323 187.663 104.56 182.366 56.4482 196.161" stroke="black"/>
<path d="M718.595 103.322C667.56 97.9137 554.951 90.1193 512.796 102.207C460.103 117.316 435.081 184.615 356.327 207.197C277.573 229.778 257.86 219.829 192.804 209.766C124.7 199.231 99.9367 193.935 51.8252 207.73" stroke="black"/>
<path d="M713.973 114.889C662.937 109.481 550.328 101.687 508.174 113.774C455.48 128.883 430.458 196.183 351.704 218.765C272.95 241.346 253.238 231.396 188.181 221.333C120.077 210.799 95.3139 205.502 47.2024 219.297" stroke="black"/>
<path d="M709.349 126.457C658.314 121.049 545.705 113.254 503.55 125.342C450.857 140.451 425.835 207.75 347.081 230.332C268.327 252.913 248.614 242.964 183.558 232.901C115.454 222.366 90.6906 217.07 42.5791 230.865" stroke="black"/>
<path d="M704.726 138.025C653.691 132.617 541.082 124.822 498.927 136.91C446.234 152.019 421.212 219.319 342.458 241.9C263.704 264.482 243.991 254.532 178.935 244.469C110.831 233.934 86.0676 228.638 37.956 242.433" stroke="black"/>
<path d="M700.103 149.593C649.068 144.185 536.459 136.39 494.304 148.478C441.611 163.587 416.589 230.886 337.835 253.468C259.081 276.049 239.368 266.1 174.312 256.037C106.208 245.502 81.4447 240.206 33.3332 254.001" stroke="black"/>
<path d="M695.48 161.16C644.445 155.752 531.836 147.958 489.681 160.045C436.988 175.154 411.966 242.454 333.212 265.036C254.458 287.617 234.745 277.667 169.689 267.604C101.584 257.07 76.8215 251.773 28.7099 265.568" stroke="black"/>
<path d="M690.857 172.728C639.822 167.32 527.213 159.526 485.058 171.613C432.365 186.722 407.343 254.022 328.589 276.603C249.835 299.185 230.122 289.235 165.066 279.172C96.9616 268.637 72.1987 263.341 24.0871 277.136" stroke="black"/>
<path d="M686.234 184.296C635.199 178.888 522.59 171.093 480.435 183.181C427.742 198.29 402.72 265.59 323.966 288.171C245.212 310.753 225.499 300.803 160.443 290.74C92.3386 280.205 67.5756 274.909 19.4641 288.704" stroke="black"/>
<path d="M681.611 195.864C630.576 190.456 517.967 182.661 475.812 194.749C423.119 209.858 398.097 277.157 319.343 299.739C240.589 322.32 220.876 312.371 155.82 302.308C87.7155 291.773 62.9526 286.477 14.841 300.272" stroke="black"/>
<path d="M676.988 207.432C625.953 202.024 513.344 194.229 471.189 206.316C418.495 221.426 393.474 288.725 314.72 311.307C235.966 333.888 216.253 323.939 151.197 313.876C83.0922 303.341 58.3293 298.044 10.2177 311.84" stroke="black"/>
<path d="M672.365 218.999C621.33 213.591 508.721 205.797 466.566 217.884C413.872 232.993 388.85 300.293 310.096 322.874C231.342 345.456 211.63 335.506 146.573 325.443C78.4689 314.909 53.706 309.612 5.59445 323.407" stroke="black"/>
<path d="M667.742 230.567C616.707 225.159 504.098 217.365 461.943 229.452C409.249 244.561 384.227 311.861 305.473 334.443C226.719 357.024 207.007 347.074 141.951 337.011C73.8461 326.477 49.0832 321.18 0.971646 334.975" stroke="black"/>
<path d="M663.119 242.135C612.083 236.727 499.474 228.932 457.32 241.02C404.626 256.129 379.604 323.428 300.85 346.01C222.096 368.591 202.383 358.642 137.327 348.579C69.2228 338.044 44.4599 332.748 -3.65165 346.543" stroke="black"/>
<path d="M658.495 253.703C607.46 248.295 494.851 240.5 452.696 252.588C400.003 267.697 374.981 334.997 296.227 357.578C217.473 380.16 197.76 370.21 132.704 360.147C64.5995 349.612 39.8366 344.316 -8.27494 358.111" stroke="black"/>
<path d="M653.873 265.271C602.838 259.862 490.229 252.068 448.074 264.155C395.38 279.264 370.359 346.564 291.605 369.146C212.851 391.727 193.138 381.777 128.082 371.714C59.9772 361.18 35.2143 355.883 -12.8973 369.679" stroke="black"/>
<path d="M649.25 276.838C598.215 271.43 485.606 263.636 443.451 275.723C390.758 290.832 365.736 358.132 286.982 380.714C208.228 403.295 188.515 393.345 123.459 383.282C55.3544 372.748 30.5915 367.451 -17.5201 381.246" stroke="black"/>
<path d="M644.627 288.406C593.592 282.998 480.983 275.204 438.828 287.291C386.135 302.4 361.113 369.7 282.359 392.281C203.605 414.863 183.892 404.913 118.836 394.85C50.7314 384.316 25.9684 379.019 -22.1431 392.814" stroke="black"/>
<path d="M640.004 299.974C588.968 294.566 476.359 286.771 434.205 298.859C381.511 313.968 356.489 381.268 277.735 403.849C198.981 426.431 179.269 416.481 114.212 406.418C46.1078 395.883 21.3449 390.587 -26.7666 404.382" stroke="black"/>
<path d="M635.381 311.542C584.345 306.133 471.736 298.339 429.582 310.426C376.888 325.535 351.866 392.835 273.112 415.417C194.358 437.998 174.645 428.048 109.589 417.985C41.4848 407.451 16.7218 402.154 -31.3897 415.95" stroke="black"/>
</mask>
<g mask="url(#mask0_190_2399)">
<rect width="862.175" height="325.923" transform="matrix(-0.961264 0.275628 0.275628 0.961264 713.264 -16.0493)" fill="url(#paint0_linear_190_2399)"/>
</g>
<defs>
<linearGradient id="paint0_linear_190_2399" x1="34.2606" y1="107.846" x2="835.958" y2="236.249" gradientUnits="userSpaceOnUse">
<stop stop-color="#F5F5F5"/>
<stop offset="1" stop-color="#372F8F" stop-opacity="0.2"/>
</linearGradient>
</defs>
</svg>
