<svg width="575" height="376" viewBox="0 0 575 376" fill="none" xmlns="http://www.w3.org/2000/svg">
<mask id="mask0_190_2274" style="mask-type:alpha" maskUnits="userSpaceOnUse" x="18" y="60" width="647" height="256">
<path d="M19.1139 133.048C35.8195 153.271 85.9866 198.33 153.01 216.785C236.79 239.854 242.59 218.789 292.665 232.577C342.74 246.366 366.897 303.49 408.786 315.025" stroke="black"/>
<path d="M275.086 60.3947C291.792 80.6173 341.959 125.676 408.982 144.131C492.762 167.2 498.562 146.136 548.637 159.924C598.712 173.712 622.869 230.837 664.758 242.371" stroke="black"/>
<path d="M31.3032 129.589C48.0087 149.811 98.1758 194.87 165.199 213.325C248.979 236.394 254.779 215.329 304.854 229.118C354.929 242.906 379.086 300.031 420.976 311.565" stroke="black"/>
<path d="M43.4921 126.129C60.1977 146.351 110.365 191.41 177.388 209.865C261.168 232.934 266.968 211.87 317.043 225.658C367.118 239.446 391.275 296.571 433.165 308.105" stroke="black"/>
<path d="M55.6813 122.669C72.3869 142.892 122.554 187.951 189.578 206.406C273.357 229.474 279.157 208.41 329.232 222.198C379.307 235.987 403.464 293.111 445.354 304.646" stroke="black"/>
<path d="M67.8708 119.21C84.5764 139.432 134.743 184.491 201.767 202.946C285.547 226.015 291.347 204.951 341.422 218.739C391.497 232.527 415.653 289.652 457.543 301.186" stroke="black"/>
<path d="M80.0595 115.75C96.7651 135.972 146.932 181.031 213.956 199.486C297.735 222.555 303.535 201.491 353.611 215.279C403.686 229.067 427.842 286.192 469.732 297.726" stroke="black"/>
<path d="M92.2487 112.29C108.954 132.513 159.121 177.572 226.145 196.027C309.925 219.095 315.725 198.031 365.8 211.819C415.875 225.608 440.031 282.732 481.921 294.267" stroke="black"/>
<path d="M104.438 108.831C121.144 129.053 171.311 174.112 238.334 192.567C322.114 215.636 327.914 194.571 377.989 208.36C428.064 222.148 452.221 279.273 494.111 290.807" stroke="black"/>
<path d="M116.627 105.371C133.332 125.593 183.5 170.652 250.523 189.107C334.303 212.176 340.103 191.111 390.178 204.9C440.253 218.688 464.41 275.813 506.299 287.347" stroke="black"/>
<path d="M128.816 101.911C145.522 122.134 195.689 167.192 262.713 185.648C346.492 208.716 352.292 187.652 402.367 201.44C452.443 215.229 476.599 272.353 518.489 283.888" stroke="black"/>
<path d="M141.006 98.4514C157.711 118.674 207.878 163.733 274.902 182.188C358.681 205.257 364.481 184.192 414.557 197.981C464.632 211.769 488.788 268.893 530.678 280.428" stroke="black"/>
<path d="M153.194 94.9917C169.9 115.214 220.067 160.273 287.091 178.728C370.87 201.797 376.67 180.733 426.745 194.521C476.821 208.309 500.977 265.434 542.867 276.968" stroke="black"/>
<path d="M165.384 91.5319C182.089 111.754 232.256 156.813 299.28 175.268C383.06 198.337 388.86 177.273 438.935 191.061C489.01 204.849 513.166 261.974 555.056 273.508" stroke="black"/>
<path d="M177.573 88.0725C194.279 108.295 244.446 153.354 311.469 171.809C395.249 194.878 401.049 173.813 451.124 187.602C501.199 201.39 525.356 258.515 567.245 270.049" stroke="black"/>
<path d="M189.762 84.6125C206.467 104.835 256.635 149.894 323.658 168.349C407.438 191.418 413.238 170.353 463.313 184.142C513.388 197.93 537.545 255.055 579.434 266.589" stroke="black"/>
<path d="M201.951 81.1528C218.657 101.375 268.824 146.434 335.848 164.889C419.627 187.958 425.427 166.894 475.502 180.682C525.577 194.47 549.734 251.595 591.624 263.129" stroke="black"/>
<path d="M214.14 77.6933C230.846 97.9159 281.013 142.975 348.037 161.43C431.816 184.499 437.616 163.434 487.691 177.222C537.767 191.011 561.923 248.135 603.813 259.67" stroke="black"/>
<path d="M226.329 74.2334C243.035 94.4559 293.202 139.515 360.226 157.97C444.005 181.039 449.805 159.974 499.88 173.763C549.955 187.551 574.112 244.675 616.002 256.21" stroke="black"/>
<path d="M238.519 70.7739C255.224 90.9964 305.391 136.055 372.415 154.51C456.194 177.579 461.995 156.515 512.07 170.303C562.145 184.091 586.301 241.216 628.191 252.75" stroke="black"/>
<path d="M250.708 67.3142C267.414 87.5367 317.581 132.596 384.604 151.051C468.384 174.119 474.184 153.055 524.259 166.843C574.334 180.632 598.491 237.756 640.38 249.291" stroke="black"/>
<path d="M262.897 63.8544C279.602 84.077 329.769 129.136 396.793 147.591C480.572 170.66 486.373 149.595 536.448 163.384C586.523 177.172 610.679 234.296 652.569 245.831" stroke="black"/>
</mask>
<g mask="url(#mask0_190_2274)">
<rect width="703" height="269" transform="matrix(0.964119 0.265471 0.265471 -0.964119 -34.7429 225.052)" fill="url(#paint0_linear_190_2274)"/>
</g>
<defs>
<linearGradient id="paint0_linear_190_2274" x1="585.992" y1="132.884" x2="21.7394" y2="95.2405" gradientUnits="userSpaceOnUse">
<stop stop-color="#F5F5F5"/>
<stop offset="1" stop-color="#372F8F" stop-opacity="0.2"/>
</linearGradient>
</defs>
</svg>
