<svg width="281" height="175" viewBox="0 0 281 175" fill="none" xmlns="http://www.w3.org/2000/svg">
<path d="M178.36 146.031L178.369 146.037L178.378 146.042C186.954 151.358 196.65 154 207.409 154C218.284 154 227.986 151.361 236.45 146.035L236.457 146.031C245.045 140.581 251.762 132.741 256.627 122.6C261.511 112.42 263.909 100.196 263.909 86C263.909 71.8037 261.511 59.58 256.627 49.4001C251.763 39.2615 245.047 31.4795 236.454 26.149C227.99 20.7018 218.287 18 207.409 18C196.644 18 186.945 20.7054 178.369 26.1454C169.774 31.4761 163.056 39.2592 158.19 49.4001C153.307 59.58 150.909 71.8037 150.909 86C150.909 100.196 153.307 112.42 158.19 122.6C163.056 132.741 169.772 140.581 178.36 146.031ZM219.113 121.225L219.1 121.234L219.087 121.244C215.833 123.747 211.972 125.022 207.409 125.022C202.984 125.022 199.111 123.757 195.718 121.234C192.496 118.751 189.777 114.702 187.679 108.861C185.719 103.068 184.702 95.4721 184.702 86C184.702 76.5279 185.719 68.9322 187.679 63.1392C189.777 57.2979 192.496 53.2494 195.718 50.766C199.111 48.2432 202.984 46.9779 207.409 46.9779C211.972 46.9779 215.833 48.2527 219.087 50.7564L219.1 50.766L219.113 50.7754C222.441 53.2538 225.157 57.2906 227.133 63.1224L227.138 63.1392L227.144 63.1559C229.219 68.9384 230.297 76.5268 230.297 86C230.297 95.4732 229.219 103.062 227.144 108.844L227.138 108.861L227.133 108.878C225.157 114.709 222.441 118.746 219.113 121.225Z" fill="black" fill-opacity="0.1" stroke="#161616" stroke-width="4"/>
<circle cx="183.909" cy="86" r="3.5" fill="#F5F5F5" stroke="#161616"/>
<circle cx="230.909" cy="86" r="3.5" fill="#F5F5F5" stroke="#161616"/>
<circle cx="263.909" cy="86" r="3.5" fill="#F5F5F5" stroke="#161616"/>
<circle cx="150.909" cy="86" r="3.5" fill="#F5F5F5" stroke="#161616"/>
<circle cx="207.409" cy="47" r="3.5" fill="#F5F5F5" stroke="#161616"/>
<circle cx="207.409" cy="19" r="3.5" fill="#F5F5F5" stroke="#161616"/>
<circle cx="207.409" cy="153" r="3.5" fill="#F5F5F5" stroke="#161616"/>
<circle cx="207.409" cy="126" r="3.5" fill="#F5F5F5" stroke="#161616"/>
<path d="M109.19 148.404L109.216 148.429L109.242 148.453C113.203 152.142 117.96 154 123.409 154C128.968 154 133.743 152.15 137.601 148.429L137.614 148.417L137.627 148.404C141.5 144.531 143.409 139.614 143.409 133.814C143.409 128.023 141.503 123.2 137.588 119.558C133.732 115.846 128.961 114 123.409 114C117.96 114 113.204 115.858 109.243 119.546C105.319 123.19 103.409 128.016 103.409 133.814C103.409 139.614 105.317 144.531 109.19 148.404Z" fill="black" fill-opacity="0.1" stroke="#161616" stroke-width="4"/>
<circle cx="103.409" cy="134" r="3.5" fill="#F5F5F5" stroke="#161616"/>
<circle cx="123.409" cy="114" r="3.5" fill="#F5F5F5" stroke="#161616"/>
<circle cx="143.409" cy="134" r="3.5" fill="#F5F5F5" stroke="#161616"/>
<circle cx="123.409" cy="153" r="3.5" fill="#F5F5F5" stroke="#161616"/>
<path d="M54.4418 153V154.5H55.9418H84.9087H86.4087V153V25V23.5H84.9087H30.9087H29.4087V25V48.7714V50.2714H30.9087H54.4418V153Z" fill="black" fill-opacity="0.1" stroke="#161616" stroke-width="3"/>
<circle cx="29.4087" cy="23" r="3.5" fill="#F5F5F5" stroke="#161616"/>
<circle cx="86.4087" cy="23" r="3.5" fill="#F5F5F5" stroke="#161616"/>
<circle cx="53.4087" cy="51" r="3.5" fill="#F5F5F5" stroke="#161616"/>
<circle cx="54.4087" cy="154" r="3.5" fill="#F5F5F5" stroke="#161616"/>
<circle cx="86.4087" cy="154" r="3.5" fill="#F5F5F5" stroke="#161616"/>
<circle cx="29.4087" cy="51" r="3.5" fill="#F5F5F5" stroke="#161616"/>
<rect x="4.40869" y="4.14014" width="272.283" height="166.265" stroke="#161616" stroke-width="3"/>
<rect x="1.35864" y="1" width="7" height="7" fill="#F5F5F5" stroke="#161616" stroke-width="2"/>
<rect x="1.35864" y="165.99" width="7" height="7" fill="#F5F5F5" stroke="#161616" stroke-width="2"/>
<rect x="272.641" y="166.9" width="7" height="7" fill="#F5F5F5" stroke="#161616" stroke-width="2"/>
<rect x="272.641" y="1" width="7" height="7" fill="#F5F5F5" stroke="#161616" stroke-width="2"/>
</svg>
