<svg width="1440" height="485" viewBox="0 0 1440 485" fill="none" xmlns="http://www.w3.org/2000/svg">
<mask id="mask0_130_922" style="mask-type:alpha" maskUnits="userSpaceOnUse" x="0" y="-1" width="1441" height="486">
<g opacity="0.6">
<path d="M0.201172 404.94C151.672 404.94 267.745 441.691 306.848 460.067C331.819 478.443 397.237 504.168 459.142 460.067C536.524 404.94 642.307 460.067 671.119 460.067C699.932 460.067 745.62 404.94 851.815 404.94C958.009 404.94 1069.97 474.435 1158.87 474.435C1247.78 474.435 1325.57 370.046 1440 370.046" stroke="#444444" stroke-width="1.14286"/>
<path d="M0 34.894C151.471 34.894 267.544 71.645 306.647 90.0206C331.617 108.396 397.035 134.122 458.941 90.0206C536.323 34.894 642.106 90.0206 670.918 90.0206C699.731 90.0206 745.419 34.894 851.613 34.894C957.808 34.894 1069.76 104.389 1158.67 104.389C1247.58 104.389 1325.37 0 1439.8 0" stroke="#444444" stroke-opacity="0.2" stroke-width="1.14286"/>
<path d="M0.194092 391.949C151.665 391.949 267.738 428.701 306.841 447.076C331.812 465.452 397.23 491.177 459.135 447.076C536.517 391.949 642.3 447.076 671.112 447.076C699.925 447.076 745.613 391.949 851.808 391.949C958.002 391.949 1069.96 461.444 1158.87 461.444C1247.77 461.444 1325.57 357.055 1439.99 357.055" stroke="#444444" stroke-opacity="0.971915" stroke-width="1.14286"/>
<path d="M0.187012 379.07C151.658 379.07 267.731 415.821 306.834 434.196C331.805 452.572 397.222 478.297 459.128 434.196C536.51 379.07 642.293 434.196 671.105 434.196C699.918 434.196 745.606 379.07 851.8 379.07C957.995 379.07 1069.95 448.564 1158.86 448.564C1247.77 448.564 1325.56 344.176 1439.99 344.176" stroke="#444444" stroke-opacity="0.94407" stroke-width="1.14286"/>
<path d="M0.179932 366.301C151.651 366.301 267.724 403.052 306.827 421.427C331.797 439.803 397.215 465.529 459.121 421.427C536.503 366.301 642.286 421.427 671.098 421.427C699.911 421.427 745.599 366.301 851.793 366.301C957.988 366.301 1069.94 435.796 1158.85 435.796C1247.76 435.796 1325.55 331.407 1439.98 331.407" stroke="#444444" stroke-opacity="0.916465" stroke-width="1.14286"/>
<path d="M0.172852 353.643C151.644 353.643 267.717 390.394 306.82 408.77C331.79 427.145 397.208 452.871 459.114 408.77C536.496 353.643 642.279 408.77 671.091 408.77C699.904 408.77 745.592 353.643 851.786 353.643C957.981 353.643 1069.94 423.138 1158.84 423.138C1247.75 423.138 1325.55 318.749 1439.97 318.749" stroke="#444444" stroke-opacity="0.889101" stroke-width="1.14286"/>
<path d="M0.166748 341.096C151.638 341.096 267.711 377.848 306.813 396.223C331.784 414.599 397.202 440.324 459.108 396.223C536.49 341.096 642.273 396.223 671.085 396.223C699.897 396.223 745.586 341.096 851.78 341.096C957.975 341.096 1069.93 410.591 1158.84 410.591C1247.75 410.591 1325.54 306.203 1439.97 306.203" stroke="#444444" stroke-opacity="0.861976" stroke-width="1.14286"/>
<path d="M0.159668 328.661C151.631 328.661 267.704 365.412 306.806 383.788C331.777 402.163 397.195 427.889 459.101 383.788C536.483 328.661 642.266 383.788 671.078 383.788C699.89 383.788 745.579 328.661 851.773 328.661C957.968 328.661 1069.92 398.156 1158.83 398.156C1247.74 398.156 1325.53 293.767 1439.96 293.767" stroke="#444444" stroke-opacity="0.835092" stroke-width="1.14286"/>
<path d="M0.15332 316.337C151.624 316.337 267.697 353.088 306.8 371.463C331.771 389.839 397.189 415.564 459.094 371.463C536.476 316.337 642.259 371.463 671.072 371.463C699.884 371.463 745.572 316.337 851.767 316.337C957.961 316.337 1069.92 385.831 1158.83 385.831C1247.73 385.831 1325.53 281.443 1439.95 281.443" stroke="#444444" stroke-opacity="0.808448" stroke-width="1.14286"/>
<path d="M0.14624 304.123C151.617 304.123 267.69 340.874 306.793 359.25C331.764 377.625 397.182 403.351 459.087 359.25C536.469 304.123 642.252 359.25 671.065 359.25C699.877 359.25 745.565 304.123 851.76 304.123C957.954 304.123 1069.91 373.618 1158.82 373.618C1247.72 373.618 1325.52 269.229 1439.95 269.229" stroke="#444444" stroke-opacity="0.782044" stroke-width="1.14286"/>
<path d="M0.139648 292.021C151.611 292.021 267.684 328.772 306.786 347.148C331.757 365.523 397.175 391.249 459.081 347.148C536.463 292.021 642.245 347.148 671.058 347.148C699.87 347.148 745.559 292.021 851.753 292.021C957.948 292.021 1069.9 361.516 1158.81 361.516C1247.72 361.516 1325.51 257.127 1439.94 257.127" stroke="#444444" stroke-opacity="0.75588" stroke-width="1.14286"/>
<path d="M0.132568 280.03C151.604 280.03 267.677 316.781 306.779 335.156C331.75 353.532 397.168 379.258 459.074 335.156C536.456 280.03 642.238 335.156 671.051 335.156C699.863 335.156 745.552 280.03 851.746 280.03C957.94 280.03 1069.9 349.525 1158.8 349.525C1247.71 349.525 1325.5 245.136 1439.93 245.136" stroke="#444444" stroke-opacity="0.729957" stroke-width="1.14286"/>
<path d="M0.126465 268.15C151.598 268.15 267.671 304.901 306.773 323.276C331.744 341.652 397.162 367.378 459.067 323.276C536.449 268.15 642.232 323.276 671.045 323.276C699.857 323.276 745.546 268.15 851.74 268.15C957.934 268.15 1069.89 337.644 1158.8 337.644C1247.71 337.644 1325.5 233.256 1439.93 233.256" stroke="#444444" stroke-opacity="0.704274" stroke-width="1.14286"/>
<path d="M0.120361 256.381C151.591 256.381 267.664 293.132 306.767 311.507C331.738 329.883 397.156 355.609 459.061 311.507C536.443 256.381 642.226 311.507 671.039 311.507C699.851 311.507 745.539 256.381 851.734 256.381C957.928 256.381 1069.89 325.875 1158.79 325.875C1247.7 325.875 1325.49 221.487 1439.92 221.487" stroke="#444444" stroke-opacity="0.67883" stroke-width="1.14286"/>
<path d="M0.114014 244.723C151.585 244.723 267.658 281.474 306.761 299.849C331.732 318.225 397.149 343.951 459.055 299.849C536.437 244.723 642.22 299.849 671.032 299.849C699.845 299.849 745.533 244.723 851.727 244.723C957.922 244.723 1069.88 314.218 1158.79 314.218C1247.69 314.218 1325.49 209.829 1439.91 209.829" stroke="#444444" stroke-opacity="0.653627" stroke-width="1.14286"/>
<path d="M0.107666 233.176C151.579 233.176 267.652 269.927 306.754 288.303C331.725 306.678 397.143 332.404 459.049 288.303C536.431 233.176 642.214 288.303 671.026 288.303C699.838 288.303 745.527 233.176 851.721 233.176C957.916 233.176 1069.87 302.671 1158.78 302.671C1247.69 302.671 1325.48 198.282 1439.91 198.282" stroke="#444444" stroke-opacity="0.628664" stroke-width="1.14286"/>
<path d="M0.101074 221.74C151.572 221.74 267.645 258.491 306.748 276.867C331.719 295.243 397.137 320.968 459.042 276.867C536.424 221.74 642.207 276.867 671.019 276.867C699.832 276.867 745.52 221.74 851.715 221.74C957.909 221.74 1069.87 291.235 1158.77 291.235C1247.68 291.235 1325.47 186.846 1439.9 186.846" stroke="#444444" stroke-opacity="0.603942" stroke-width="1.14286"/>
<path d="M0.0959473 210.416C151.567 210.416 267.64 247.167 306.743 265.542C331.713 283.918 397.131 309.644 459.037 265.542C536.419 210.416 642.202 265.542 671.014 265.542C699.827 265.542 745.515 210.416 851.709 210.416C957.904 210.416 1069.86 279.91 1158.77 279.91C1247.67 279.91 1325.47 175.522 1439.89 175.522" stroke="#444444" stroke-opacity="0.579459" stroke-width="1.14286"/>
<path d="M0.0893555 199.202C151.56 199.202 267.633 235.953 306.736 254.329C331.707 272.704 397.125 298.43 459.03 254.329C536.412 199.202 642.195 254.329 671.008 254.329C699.82 254.329 745.508 199.202 851.703 199.202C957.897 199.202 1069.85 268.697 1158.76 268.697C1247.67 268.697 1325.46 164.308 1439.89 164.308" stroke="#444444" stroke-opacity="0.555216" stroke-width="1.14286"/>
<path d="M0.0830078 188.1C151.554 188.1 267.627 224.851 306.73 243.226C331.7 261.602 397.118 287.328 459.024 243.226C536.406 188.1 642.189 243.226 671.001 243.226C699.814 243.226 745.502 188.1 851.696 188.1C957.891 188.1 1069.85 257.595 1158.75 257.595C1247.66 257.595 1325.46 153.206 1439.88 153.206" stroke="#444444" stroke-opacity="0.531214" stroke-width="1.14286"/>
<path d="M0.0773926 177.108C151.549 177.108 267.621 213.86 306.724 232.235C331.695 250.611 397.113 276.336 459.018 232.235C536.4 177.108 642.183 232.235 670.996 232.235C699.808 232.235 745.496 177.108 851.691 177.108C957.885 177.108 1069.84 246.603 1158.75 246.603C1247.66 246.603 1325.45 142.214 1439.88 142.214" stroke="#444444" stroke-opacity="0.507452" stroke-width="1.14286"/>
<path d="M0.0717773 166.228C151.543 166.228 267.616 202.979 306.718 221.355C331.689 239.73 397.107 265.456 459.013 221.355C536.395 166.228 642.178 221.355 670.99 221.355C699.803 221.355 745.491 166.228 851.685 166.228C957.88 166.228 1069.84 235.723 1158.74 235.723C1247.65 235.723 1325.44 131.334 1439.87 131.334" stroke="#444444" stroke-opacity="0.48393" stroke-width="1.14286"/>
<path d="M0.0654297 155.459C151.537 155.459 267.61 192.21 306.712 210.586C331.683 228.961 397.101 254.687 459.006 210.586C536.388 155.459 642.171 210.586 670.984 210.586C699.796 210.586 745.484 155.459 851.679 155.459C957.873 155.459 1069.83 224.954 1158.74 224.954C1247.64 224.954 1325.44 120.565 1439.86 120.565" stroke="#444444" stroke-opacity="0.460648" stroke-width="1.14286"/>
<path d="M0.0598145 144.801C151.531 144.801 267.604 181.552 306.707 199.928C331.677 218.303 397.095 244.029 459.001 199.928C536.383 144.801 642.166 199.928 670.978 199.928C699.791 199.928 745.479 144.801 851.673 144.801C957.868 144.801 1069.82 214.296 1158.73 214.296C1247.64 214.296 1325.43 109.907 1439.86 109.907" stroke="#444444" stroke-opacity="0.437607" stroke-width="1.14286"/>
<path d="M0.0541992 134.254C151.525 134.254 267.598 171.005 306.701 189.381C331.672 207.756 397.09 233.482 458.995 189.381C536.377 134.254 642.16 189.381 670.972 189.381C699.785 189.381 745.473 134.254 851.668 134.254C957.862 134.254 1069.82 203.749 1158.73 203.749C1247.63 203.749 1325.43 99.36 1439.85 99.36" stroke="#444444" stroke-opacity="0.414805" stroke-width="1.14286"/>
<path d="M0.0483398 123.818C151.519 123.818 267.592 160.569 306.695 178.945C331.666 197.32 397.084 223.046 458.989 178.945C536.371 123.818 642.154 178.945 670.967 178.945C699.779 178.945 745.467 123.818 851.662 123.818C957.856 123.818 1069.81 193.313 1158.72 193.313C1247.63 193.313 1325.42 88.9241 1439.85 88.9241" stroke="#444444" stroke-opacity="0.392244" stroke-width="1.14286"/>
<path d="M0.0432129 113.493C151.514 113.493 267.587 150.244 306.69 168.62C331.661 186.995 397.079 212.721 458.984 168.62C536.366 113.493 642.149 168.62 670.962 168.62C699.774 168.62 745.462 113.493 851.657 113.493C957.851 113.493 1069.81 182.988 1158.71 182.988C1247.62 182.988 1325.42 78.5992 1439.84 78.5992" stroke="#444444" stroke-opacity="0.369923" stroke-width="1.14286"/>
<path d="M0.0373535 103.28C151.508 103.28 267.581 140.031 306.684 158.406C331.655 176.782 397.073 202.507 458.978 158.406C536.36 103.279 642.143 158.406 670.956 158.406C699.768 158.406 745.456 103.28 851.651 103.28C957.845 103.28 1069.8 172.774 1158.71 172.774C1247.62 172.774 1325.41 68.3855 1439.84 68.3855" stroke="#444444" stroke-opacity="0.347842" stroke-width="1.14286"/>
<path d="M0.0317383 93.1769C151.503 93.1769 267.576 129.928 306.678 148.303C331.649 166.679 397.067 192.405 458.973 148.303C536.355 93.1769 642.138 148.303 670.95 148.303C699.762 148.303 745.451 93.1769 851.645 93.1769C957.84 93.1769 1069.8 162.672 1158.7 162.672C1247.61 162.672 1325.4 58.2829 1439.83 58.2829" stroke="#444444" stroke-opacity="0.326001" stroke-width="1.14286"/>
<path d="M0.026123 83.1853C151.497 83.1853 267.57 119.936 306.673 138.312C331.644 156.687 397.062 182.413 458.967 138.312C536.349 83.1853 642.132 138.312 670.944 138.312C699.757 138.312 745.445 83.1853 851.64 83.1853C957.834 83.1853 1069.79 152.68 1158.7 152.68C1247.6 152.68 1325.4 48.2914 1439.83 48.2914" stroke="#444444" stroke-opacity="0.304401" stroke-width="1.14286"/>
<path d="M0.0209961 73.3049C151.492 73.3049 267.565 110.056 306.668 128.432C331.638 146.807 397.056 172.533 458.962 128.432C536.344 73.3049 642.127 128.432 670.939 128.432C699.752 128.432 745.44 73.3049 851.634 73.3049C957.829 73.3049 1069.79 142.8 1158.69 142.8C1247.6 142.8 1325.39 38.4109 1439.82 38.4109" stroke="#444444" stroke-opacity="0.28304" stroke-width="1.14286"/>
<path d="M0.0153809 63.5355C151.487 63.5355 267.559 100.287 306.662 118.662C331.633 137.038 397.051 162.763 458.956 118.662C536.338 63.5355 642.121 118.662 670.934 118.662C699.746 118.662 745.434 63.5355 851.629 63.5355C957.823 63.5355 1069.78 133.03 1158.69 133.03C1247.59 133.03 1325.39 28.6415 1439.81 28.6415" stroke="#444444" stroke-opacity="0.26192" stroke-width="1.14286"/>
<path d="M0.010498 53.8773C151.482 53.8773 267.555 90.6283 306.657 109.004C331.628 127.379 397.046 153.105 458.952 109.004C536.334 53.8772 642.116 109.004 670.929 109.004C699.741 109.004 745.43 53.8773 851.624 53.8773C957.818 53.8773 1069.78 123.372 1158.68 123.372C1247.59 123.372 1325.38 18.9833 1439.81 18.9833" stroke="#444444" stroke-opacity="0.24104" stroke-width="1.14286"/>
<path d="M0.00512695 44.3301C151.476 44.3301 267.549 81.0811 306.652 99.4567C331.623 117.832 397.041 143.558 458.946 99.4567C536.328 44.3301 642.111 99.4567 670.923 99.4567C699.736 99.4567 745.424 44.3301 851.619 44.3301C957.813 44.3301 1069.77 113.825 1158.68 113.825C1247.58 113.825 1325.38 9.4361 1439.8 9.4361" stroke="#444444" stroke-opacity="0.2204" stroke-width="1.14286"/>
</g>
</mask>
<g mask="url(#mask0_130_922)">
<rect y="39" width="1440" height="472" fill="url(#paint0_linear_130_922)" fill-opacity="0.54"/>
</g>
<defs>
<linearGradient id="paint0_linear_130_922" x1="0" y1="275" x2="1440" y2="275" gradientUnits="userSpaceOnUse">
<stop offset="0.0733477" stop-color="#372F8F"/>
<stop offset="0.202088" stop-color="#7B76B3"/>
<stop offset="0.435" stop-color="#F5F5F5"/>
<stop offset="0.55" stop-color="#F5F5F5"/>
<stop offset="0.954873" stop-color="#372F8F"/>
</linearGradient>
</defs>
</svg>
